# xmcd
#
# Track frame offsets:
#	182
#	23837
#	57350
#	82637
#	107315
#	136320
#	157237
#	179345
#	209327
#	230545
#	248135
#
# Disc length: 3673 seconds
#
# Revision: 0
# Processed by: cddbd v1.4PL0 Copyright (c) Steve Scherf et al.
# Submitted via: dBpowerAMP V4.0
#
DISCID=880e570b
DTITLE=Wendo Kolosoy - Amba
DYEAR=1900
DGENRE=Afro-Pop
TTITLE0=Victoria Apiki Dalapo
TTITLE1=Batela Nzoto
TTITLE2=Amba
TTITLE3=Cherie Kabisa
TTITLE4=Yebisa Banganga
TTITLE5=Toko Wela Wela
TTITLE6=Essengo Ya Ngai Wendo Na Moundanda
TTITLE7=Marie Marie
TTITLE8=Bisse Bintsie
TTITLE9=Makanisi Na Wendo
TTITLE10=Kinshasa
EXTD=
EXTT0=
EXTT1=
EXTT2=
EXTT3=
EXTT4=
EXTT5=
EXTT6=
EXTT7=
EXTT8=
EXTT9=
EXTT10=
PLAYORDER=
